<svg width="104" height="104" viewBox="0 0 104 104" fill="none" xmlns="http://www.w3.org/2000/svg">
<path d="M97.7027 35.4487C110.756 11.2078 80.9204 -27.0184 21.25 39.1781" stroke="#19C4A8" stroke-width="3.98437" stroke-linecap="round"/>
<path d="M62.7063 95.6955C84.6132 112.371 134.072 88.5912 62.7084 19.5976" stroke="#19C4A8" stroke-width="3.98437" stroke-linecap="round"/>
<path d="M4.89877 65.2616C-5.58641 90.7186 16.5955 132.437 80.9268 66.2167" stroke="#19C4A8" stroke-width="3.98437" stroke-linecap="round"/>
<path d="M37.1093 5.61297C12.3499 -6.42742 -28.1546 16.8018 39.2533 82.5927" stroke="#19C4A8" stroke-width="3.98437" stroke-linecap="round"/>
<path d="M69.8548 53.0001C64.5822 53.2142 60.0789 55.1878 56.346 58.9207C52.613 62.6536 50.6395 67.1569 50.4254 72.4295C50.2114 67.1569 48.2378 62.6536 44.5049 58.9207C40.7719 55.1878 36.2687 53.2142 30.996 53.0001C36.2687 52.7861 40.7719 50.8125 44.5049 47.0796C48.2378 43.3466 50.2114 38.8434 50.4254 33.5707C50.6395 38.8434 52.613 43.3466 56.346 47.0796C60.0789 50.8125 64.5822 52.7861 69.8548 53.0001Z" fill="#19C4A8" stroke="white" stroke-width="0.0390579"/>
</svg>
