<svg width="11" height="12" viewBox="0 0 11 12" fill="none" xmlns="http://www.w3.org/2000/svg">
<path d="M7.56319 0.936672C7.56319 0.800139 7.61743 0.669199 7.71397 0.572655C7.81052 0.476112 7.94146 0.421875 8.07799 0.421875H9.79398C9.93051 0.421875 10.0615 0.476112 10.158 0.572655C10.2545 0.669199 10.3088 0.800139 10.3088 0.936672V2.65266C10.3088 2.78919 10.2545 2.92013 10.158 3.01668C10.0615 3.11322 9.93051 3.16746 9.79398 3.16746C9.65745 3.16746 9.52651 3.11322 9.42996 3.01668C9.33342 2.92013 9.27918 2.78919 9.27918 2.65266V2.17905L6.21099 5.24724C6.11447 5.34364 5.98363 5.39779 5.8472 5.39779C5.71078 5.39779 5.57994 5.34364 5.48342 5.24724L3.78802 3.55184L0.891428 6.44843C0.844299 6.49901 0.787465 6.53958 0.724317 6.56771C0.661169 6.59585 0.593 6.61098 0.523878 6.6122C0.454756 6.61342 0.386097 6.6007 0.321996 6.57481C0.257894 6.54892 0.199665 6.51038 0.150781 6.4615C0.101896 6.41261 0.0633589 6.35438 0.0374673 6.29028C0.0115758 6.22618 -0.00113946 6.15752 8.01169e-05 6.0884C0.00129969 6.01928 0.0164292 5.95111 0.0445659 5.88796C0.0727026 5.82481 0.11327 5.76798 0.163848 5.72085L3.42423 2.46047C3.52075 2.36407 3.6516 2.30992 3.78802 2.30992C3.92444 2.30992 4.05528 2.36407 4.15181 2.46047L5.8472 4.15587L8.5516 1.45147H8.07799C7.94146 1.45147 7.81052 1.39723 7.71397 1.30069C7.61743 1.20415 7.56319 1.0732 7.56319 0.936672ZM0.527638 8.65863C0.664171 8.65863 0.795111 8.71286 0.891655 8.80941C0.988198 8.90595 1.04243 9.03689 1.04243 9.17342V10.8894C1.04243 11.0259 0.988198 11.1569 0.891655 11.2534C0.795111 11.35 0.664171 11.4042 0.527638 11.4042C0.391106 11.4042 0.260165 11.35 0.163622 11.2534C0.0670786 11.1569 0.0128413 11.0259 0.0128413 10.8894V9.17342C0.0128413 9.03689 0.0670786 8.90595 0.163622 8.80941C0.260165 8.71286 0.391106 8.65863 0.527638 8.65863ZM3.78802 7.11423C3.78802 6.9777 3.73378 6.84676 3.63724 6.75022C3.54069 6.65368 3.40975 6.59944 3.27322 6.59944C3.13669 6.59944 3.00575 6.65368 2.9092 6.75022C2.81266 6.84676 2.75842 6.9777 2.75842 7.11423V10.8894C2.75842 11.0259 2.81266 11.1569 2.9092 11.2534C3.00575 11.35 3.13669 11.4042 3.27322 11.4042C3.40975 11.4042 3.54069 11.35 3.63724 11.2534C3.73378 11.1569 3.78802 11.0259 3.78802 10.8894V7.11423ZM6.0188 7.97223C6.15534 7.97223 6.28628 8.02647 6.38282 8.12301C6.47936 8.21955 6.5336 8.35049 6.5336 8.48703V10.8894C6.5336 11.0259 6.47936 11.1569 6.38282 11.2534C6.28628 11.35 6.15534 11.4042 6.0188 11.4042C5.88227 11.4042 5.75133 11.35 5.65479 11.2534C5.55824 11.1569 5.50401 11.0259 5.50401 10.8894V8.48703C5.50401 8.35049 5.55824 8.21955 5.65479 8.12301C5.75133 8.02647 5.88227 7.97223 6.0188 7.97223ZM9.27918 5.74144C9.27918 5.60491 9.22495 5.47397 9.1284 5.37743C9.03186 5.28088 8.90092 5.22665 8.76439 5.22665C8.62785 5.22665 8.49691 5.28088 8.40037 5.37743C8.30383 5.47397 8.24959 5.60491 8.24959 5.74144V10.8894C8.24959 11.0259 8.30383 11.1569 8.40037 11.2534C8.49691 11.35 8.62785 11.4042 8.76439 11.4042C8.90092 11.4042 9.03186 11.35 9.1284 11.2534C9.22495 11.1569 9.27918 11.0259 9.27918 10.8894V5.74144Z" fill="white"/>
</svg>
